<svg aria-roledescription="gitGraph" role="graphics-document document" viewBox="-119.21875 -19 527.21875 174.4421844482422" height="174.4421844482422" xmlns="http://www.w3.org/2000/svg" width="527.21875" id="container"><style>#container{font-family:"trebuchet ms",verdana,arial,sans-serif;font-size:16px;fill:#333;}#container .error-icon{fill:#552222;}#container .error-text{fill:#552222;stroke:#552222;}#container .edge-thickness-normal{stroke-width:2px;}#container .edge-thickness-thick{stroke-width:3.5px;}#container .edge-pattern-solid{stroke-dasharray:0;}#container .edge-pattern-dashed{stroke-dasharray:3;}#container .edge-pattern-dotted{stroke-dasharray:2;}#container .marker{fill:#333333;stroke:#333333;}#container .marker.cross{stroke:#333333;}#container svg{font-family:"trebuchet ms",verdana,arial,sans-serif;font-size:16px;}#container .commit-id,#container .commit-msg,#container .branch-label{fill:lightgrey;color:lightgrey;font-family:'trebuchet ms',verdana,arial,sans-serif;font-family:var(--mermaid-font-family);}#container .branch-label0{fill:#ffffff;}#container .commit0{stroke:hsl(240, 100%, 46.2745098039%);fill:hsl(240, 100%, 46.2745098039%);}#container .commit-highlight0{stroke:hsl(60, 100%, 3.7254901961%);fill:hsl(60, 100%, 3.7254901961%);}#container .label0{fill:hsl(240, 100%, 46.2745098039%);}#container .arrow0{stroke:hsl(240, 100%, 46.2745098039%);}#container .branch-label1{fill:black;}#container .commit1{stroke:hsl(60, 100%, 43.5294117647%);fill:hsl(60, 100%, 43.5294117647%);}#container .commit-highlight1{stroke:rgb(0, 0, 160.5);fill:rgb(0, 0, 160.5);}#container .label1{fill:hsl(60, 100%, 43.5294117647%);}#container .arrow1{stroke:hsl(60, 100%, 43.5294117647%);}#container .branch-label2{fill:black;}#container .commit2{stroke:hsl(80, 100%, 46.2745098039%);fill:hsl(80, 100%, 46.2745098039%);}#container .commit-highlight2{stroke:rgb(48.8333333334, 0, 146.5000000001);fill:rgb(48.8333333334, 0, 146.5000000001);}#container .label2{fill:hsl(80, 100%, 46.2745098039%);}#container .arrow2{stroke:hsl(80, 100%, 46.2745098039%);}#container .branch-label3{fill:#ffffff;}#container .commit3{stroke:hsl(210, 100%, 46.2745098039%);fill:hsl(210, 100%, 46.2745098039%);}#container .commit-highlight3{stroke:rgb(146.5000000001, 73.2500000001, 0);fill:rgb(146.5000000001, 73.2500000001, 0);}#container .label3{fill:hsl(210, 100%, 46.2745098039%);}#container .arrow3{stroke:hsl(210, 100%, 46.2745098039%);}#container .branch-label4{fill:black;}#container .commit4{stroke:hsl(180, 100%, 46.2745098039%);fill:hsl(180, 100%, 46.2745098039%);}#container .commit-highlight4{stroke:rgb(146.5000000001, 0, 0);fill:rgb(146.5000000001, 0, 0);}#container .label4{fill:hsl(180, 100%, 46.2745098039%);}#container .arrow4{stroke:hsl(180, 100%, 46.2745098039%);}#container .branch-label5{fill:black;}#container .commit5{stroke:hsl(150, 100%, 46.2745098039%);fill:hsl(150, 100%, 46.2745098039%);}#container .commit-highlight5{stroke:rgb(146.5000000001, 0, 73.2500000001);fill:rgb(146.5000000001, 0, 73.2500000001);}#container .label5{fill:hsl(150, 100%, 46.2745098039%);}#container .arrow5{stroke:hsl(150, 100%, 46.2745098039%);}#container .branch-label6{fill:black;}#container .commit6{stroke:hsl(300, 100%, 46.2745098039%);fill:hsl(300, 100%, 46.2745098039%);}#container .commit-highlight6{stroke:rgb(0, 146.5000000001, 0);fill:rgb(0, 146.5000000001, 0);}#container .label6{fill:hsl(300, 100%, 46.2745098039%);}#container .arrow6{stroke:hsl(300, 100%, 46.2745098039%);}#container .branch-label7{fill:black;}#container .commit7{stroke:hsl(0, 100%, 46.2745098039%);fill:hsl(0, 100%, 46.2745098039%);}#container .commit-highlight7{stroke:rgb(0, 146.5000000001, 146.5000000001);fill:rgb(0, 146.5000000001, 146.5000000001);}#container .label7{fill:hsl(0, 100%, 46.2745098039%);}#container .arrow7{stroke:hsl(0, 100%, 46.2745098039%);}#container .branch{stroke-width:1;stroke:#333333;stroke-dasharray:2;}#container .commit-label{font-size:10px;fill:#000021;}#container .commit-label-bkg{font-size:10px;fill:#ffffde;opacity:0.5;}#container .tag-label{font-size:10px;fill:#131300;}#container .tag-label-bkg{fill:#ECECFF;stroke:hsl(240, 60%, 86.2745098039%);}#container .tag-hole{fill:#333;}#container .commit-merge{stroke:#ECECFF;fill:#ECECFF;}#container .commit-reverse{stroke:#ECECFF;fill:#ECECFF;stroke-width:3;}#container .commit-highlight-inner{stroke:#ECECFF;fill:#ECECFF;}#container .arrow{stroke-width:8;stroke-linecap:round;fill:none;}#container .gitTitleText{text-anchor:middle;font-size:18px;fill:#333;}#container :root{--mermaid-font-family:"trebuchet ms",verdana,arial,sans-serif;}</style><g></g><g class="commit-bullets"></g><g class="commit-labels"></g><g><line class="branch branch0" y2="0" x2="400" y1="0" x1="0"></line><rect transform="translate(-19, -9.5)" height="23" width="54.3125" y="-1.5" x="-70.3125" ry="4" rx="4" class="branchLabelBkg label0"></rect><g class="branchLabel"><g transform="translate(-80.3125, -10.5)" class="label branch-label0"><text><tspan class="row" x="0" dy="1em" xml:space="preserve">main</tspan></text></g></g><line class="branch branch1" y2="90" x2="400" y1="90" x1="0"></line><rect transform="translate(-19, 80.5)" height="23" width="76.21875" y="-1.5" x="-92.21875" ry="4" rx="4" class="branchLabelBkg label1"></rect><g class="branchLabel"><g transform="translate(-102.21875, 79.5)" class="label branch-label1"><text><tspan class="row" x="0" dy="1em" xml:space="preserve">develop</tspan></text></g></g></g><g class="commit-arrows"><path class="arrow arrow0" d="M 10 0 L 10 0  10 0 L 60 0"></path><path class="arrow arrow0" d="M 60 0 L 60 0  60 0 L 110 0"></path><path class="arrow arrow1" d="M 110 0 L 110 70 A 20 20, 0, 0, 0, 130 90 L 160 90"></path><path class="arrow arrow1" d="M 160 90 L 160 90  160 90 L 210 90"></path><path class="arrow arrow0" d="M 110 0 L 110 0  110 0 L 260 0"></path><path class="arrow arrow1" d="M 210 90 L 240 90 A 20 20, 0, 0, 0, 260 70 L 260 0"></path><path class="arrow arrow0" d="M 260 0 L 260 0  260 0 L 310 0"></path><path class="arrow arrow0" d="M 310 0 L 310 0  310 0 L 360 0"></path></g><g class="commit-bullets"><circle class="commit Normal commit0" r="10" cy="0" cx="10"></circle><circle class="commit 1-cc2c32d commit0" r="10" cy="0" cx="60"></circle><circle class="commit Reverse commit0" r="10" cy="0" cx="110"></circle><path class="commit commit-reverse Reverse commit0" d="M 105,-5L115,5M105,5L115,-5"></path><circle class="commit 3-944be99 commit1" r="10" cy="90" cx="160"></circle><circle class="commit 4-d419f8d commit1" r="10" cy="90" cx="210"></circle><circle class="commit 5-aaa2698 commit0" r="9" cy="0" cx="260"></circle><circle class="commit commit-merge 5-aaa2698 commit0" r="6" cy="0" cx="260"></circle><rect class="commit Highlight commit-highlight0 commit-highlight-outer" width="20" height="20" y="-10" x="300"></rect><rect class="commit Highlight commit0 commit-highlight-inner" width="12" height="12" y="-6" x="304"></rect><circle class="commit 7-0a8bb3f commit0" r="10" cy="0" cx="360"></circle></g><g class="commit-labels"><g transform="translate(-24.007189331054686, 21.369590454101562) rotate(-45, 0, 0)"><rect height="16" width="37.439971923828125" y="13.5" x="-8.719985961914062" class="commit-label-bkg"></rect><text class="commit-label" y="25" x="-6.7199859619140625">Normal</text></g><g transform="translate(-27.598193969726566, 24.582594604492186) rotate(-45, 50, 0)"><rect height="16" width="46.889984130859375" y="13.5" x="36.55500793457031" class="commit-label-bkg"></rect><text class="commit-label" y="25" x="38.55500793457031">1-cc2c32d</text></g><g transform="translate(-24.7840625, 22.064687499999998) rotate(-45, 100, 0)"><rect height="16" width="39.484375" y="13.5" x="90.2578125" class="commit-label-bkg"></rect><text class="commit-label" y="25" x="92.2578125">Reverse</text></g><g transform="translate(-28.9640625, 25.8046875) rotate(-45, 150, 90)"><rect height="16" width="50.484375" y="103.5" x="134.7578125" class="commit-label-bkg"></rect><text class="commit-label" y="115" x="136.7578125">3-944be99</text></g><g transform="translate(-28.19478515625, 25.11638671875) rotate(-45, 200, 90)"><rect height="16" width="48.4599609375" y="103.5" x="185.77001953125" class="commit-label-bkg"></rect><text class="commit-label" y="115" x="187.77001953125">4-d419f8d</text></g><g transform="translate(-27.066184692382812, 24.106586303710937) rotate(-45, 300, 0)"><rect height="16" width="45.489959716796875" y="13.5" x="287.25502014160156" class="commit-label-bkg"></rect><text class="commit-label" y="25" x="289.25502014160156">Highlight</text></g><g transform="translate(-28.510191650390624, 25.398592529296877) rotate(-45, 350, 0)"><rect height="16" width="49.28997802734375" y="13.5" x="335.3550109863281" class="commit-label-bkg"></rect><text class="commit-label" y="25" x="337.3550109863281">7-0a8bb3f</text></g></g></svg>