<svg aria-roledescription="gitGraph" role="graphics-document document" viewBox="-189.015625 -35.20000076293945 697.015625 252.56410217285156" height="252.56410217285156" xmlns="http://www.w3.org/2000/svg" width="697.015625" id="container"><style>#container{font-family:"trebuchet ms",verdana,arial,sans-serif;font-size:16px;fill:#333;}#container .error-icon{fill:#552222;}#container .error-text{fill:#552222;stroke:#552222;}#container .edge-thickness-normal{stroke-width:2px;}#container .edge-thickness-thick{stroke-width:3.5px;}#container .edge-pattern-solid{stroke-dasharray:0;}#container .edge-pattern-dashed{stroke-dasharray:3;}#container .edge-pattern-dotted{stroke-dasharray:2;}#container .marker{fill:#333333;stroke:#333333;}#container .marker.cross{stroke:#333333;}#container svg{font-family:"trebuchet ms",verdana,arial,sans-serif;font-size:16px;}#container .commit-id,#container .commit-msg,#container .branch-label{fill:lightgrey;color:lightgrey;font-family:'trebuchet ms',verdana,arial,sans-serif;font-family:var(--mermaid-font-family);}#container .branch-label0{fill:#ffffff;}#container .commit0{stroke:hsl(240, 100%, 46.2745098039%);fill:hsl(240, 100%, 46.2745098039%);}#container .commit-highlight0{stroke:hsl(60, 100%, 3.7254901961%);fill:hsl(60, 100%, 3.7254901961%);}#container .label0{fill:hsl(240, 100%, 46.2745098039%);}#container .arrow0{stroke:hsl(240, 100%, 46.2745098039%);}#container .branch-label1{fill:black;}#container .commit1{stroke:hsl(60, 100%, 43.5294117647%);fill:hsl(60, 100%, 43.5294117647%);}#container .commit-highlight1{stroke:rgb(0, 0, 160.5);fill:rgb(0, 0, 160.5);}#container .label1{fill:hsl(60, 100%, 43.5294117647%);}#container .arrow1{stroke:hsl(60, 100%, 43.5294117647%);}#container .branch-label2{fill:black;}#container .commit2{stroke:hsl(80, 100%, 46.2745098039%);fill:hsl(80, 100%, 46.2745098039%);}#container .commit-highlight2{stroke:rgb(48.8333333334, 0, 146.5000000001);fill:rgb(48.8333333334, 0, 146.5000000001);}#container .label2{fill:hsl(80, 100%, 46.2745098039%);}#container .arrow2{stroke:hsl(80, 100%, 46.2745098039%);}#container .branch-label3{fill:#ffffff;}#container .commit3{stroke:hsl(210, 100%, 46.2745098039%);fill:hsl(210, 100%, 46.2745098039%);}#container .commit-highlight3{stroke:rgb(146.5000000001, 73.2500000001, 0);fill:rgb(146.5000000001, 73.2500000001, 0);}#container .label3{fill:hsl(210, 100%, 46.2745098039%);}#container .arrow3{stroke:hsl(210, 100%, 46.2745098039%);}#container .branch-label4{fill:black;}#container .commit4{stroke:hsl(180, 100%, 46.2745098039%);fill:hsl(180, 100%, 46.2745098039%);}#container .commit-highlight4{stroke:rgb(146.5000000001, 0, 0);fill:rgb(146.5000000001, 0, 0);}#container .label4{fill:hsl(180, 100%, 46.2745098039%);}#container .arrow4{stroke:hsl(180, 100%, 46.2745098039%);}#container .branch-label5{fill:black;}#container .commit5{stroke:hsl(150, 100%, 46.2745098039%);fill:hsl(150, 100%, 46.2745098039%);}#container .commit-highlight5{stroke:rgb(146.5000000001, 0, 73.2500000001);fill:rgb(146.5000000001, 0, 73.2500000001);}#container .label5{fill:hsl(150, 100%, 46.2745098039%);}#container .arrow5{stroke:hsl(150, 100%, 46.2745098039%);}#container .branch-label6{fill:black;}#container .commit6{stroke:hsl(300, 100%, 46.2745098039%);fill:hsl(300, 100%, 46.2745098039%);}#container .commit-highlight6{stroke:rgb(0, 146.5000000001, 0);fill:rgb(0, 146.5000000001, 0);}#container .label6{fill:hsl(300, 100%, 46.2745098039%);}#container .arrow6{stroke:hsl(300, 100%, 46.2745098039%);}#container .branch-label7{fill:black;}#container .commit7{stroke:hsl(0, 100%, 46.2745098039%);fill:hsl(0, 100%, 46.2745098039%);}#container .commit-highlight7{stroke:rgb(0, 146.5000000001, 146.5000000001);fill:rgb(0, 146.5000000001, 146.5000000001);}#container .label7{fill:hsl(0, 100%, 46.2745098039%);}#container .arrow7{stroke:hsl(0, 100%, 46.2745098039%);}#container .branch{stroke-width:1;stroke:#333333;stroke-dasharray:2;}#container .commit-label{font-size:10px;fill:#000021;}#container .commit-label-bkg{font-size:10px;fill:#ffffde;opacity:0.5;}#container .tag-label{font-size:10px;fill:#131300;}#container .tag-label-bkg{fill:#ECECFF;stroke:hsl(240, 60%, 86.2745098039%);}#container .tag-hole{fill:#333;}#container .commit-merge{stroke:#ECECFF;fill:#ECECFF;}#container .commit-reverse{stroke:#ECECFF;fill:#ECECFF;stroke-width:3;}#container .commit-highlight-inner{stroke:#ECECFF;fill:#ECECFF;}#container .arrow{stroke-width:8;stroke-linecap:round;fill:none;}#container .gitTitleText{text-anchor:middle;font-size:18px;fill:#333;}#container :root{--mermaid-font-family:"trebuchet ms",verdana,arial,sans-serif;}</style><g></g><g class="commit-bullets"></g><g class="commit-labels"></g><g><line class="branch branch0" y2="0" x2="500" y1="0" x1="0"></line><rect transform="translate(-19, -9.5)" height="23" width="54.3125" y="-1.5" x="-70.3125" ry="4" rx="4" class="branchLabelBkg label0"></rect><g class="branchLabel"><g transform="translate(-80.3125, -10.5)" class="label branch-label0"><text><tspan class="row" x="0" dy="1em" xml:space="preserve">main</tspan></text></g></g><line class="branch branch1" y2="90" x2="500" y1="90" x1="0"></line><rect transform="translate(-19, 80.5)" height="23" width="107.59375" y="-1.5" x="-123.59375" ry="4" rx="4" class="branchLabelBkg label1"></rect><g class="branchLabel"><g transform="translate(-133.59375, 79.5)" class="label branch-label1"><text><tspan class="row" x="0" dy="1em" xml:space="preserve">nice_feature</tspan></text></g></g><line class="branch branch2" y2="180" x2="500" y1="180" x1="0"></line><rect transform="translate(-19, 170.5)" height="23" width="146.015625" y="-1.5" x="-162.015625" ry="4" rx="4" class="branchLabelBkg label2"></rect><g class="branchLabel"><g transform="translate(-172.015625, 169.5)" class="label branch-label2"><text><tspan class="row" x="0" dy="1em" xml:space="preserve">very_nice_feature</tspan></text></g></g></g><g class="commit-arrows"><path class="arrow arrow0" d="M 10 0 L 10 0  10 0 L 60 0"></path><path class="arrow arrow1" d="M 60 0 L 60 70 A 20 20, 0, 0, 0, 80 90 L 110 90"></path><path class="arrow arrow0" d="M 60 0 L 60 0  60 0 L 160 0"></path><path class="arrow arrow2" d="M 110 90 L 110 160 A 20 20, 0, 0, 0, 130 180 L 210 180"></path><path class="arrow arrow0" d="M 160 0 L 160 0  160 0 L 260 0"></path><path class="arrow arrow1" d="M 110 90 L 110 90  110 90 L 310 90"></path><path class="arrow arrow2" d="M 210 180 L 210 180  210 180 L 410 180"></path><path class="arrow arrow0" d="M 360 0 L 360 0  360 0 L 460 0"></path><path class="arrow arrow0" d="M 260 0 L 260 0  260 0 L 360 0"></path><path class="arrow arrow1" d="M 310 90 L 340 90 A 20 20, 0, 0, 0, 360 70 L 360 0"></path></g><g class="commit-bullets"><circle class="commit 1 commit0" r="10" cy="0" cx="10"></circle><circle class="commit 2 commit0" r="10" cy="0" cx="60"></circle><circle class="commit 3 commit1" r="10" cy="90" cx="110"></circle><circle class="commit 4 commit0" r="10" cy="0" cx="160"></circle><circle class="commit 5 commit2" r="10" cy="180" cx="210"></circle><circle class="commit 6 commit0" r="10" cy="0" cx="260"></circle><circle class="commit 7 commit1" r="10" cy="90" cx="310"></circle><circle class="commit customID commit0" r="9" cy="0" cx="360"></circle><path class="commit commit-reverse customID commit0" d="M 355,-5L365,5M355,5L365,-5"></path><circle class="commit 8 commit2" r="10" cy="180" cx="410"></circle><circle class="commit 9 commit0" r="10" cy="0" cx="460"></circle></g><g class="commit-labels"><g transform="translate(-12.950624999999999, 11.476875) rotate(-45, 0, 0)"><rect height="16" width="8.34375" y="13.5" x="5.828125" class="commit-label-bkg"></rect><text class="commit-label" y="25" x="7.828125">1</text></g><g transform="translate(-13.2, 11.7) rotate(-45, 50, 0)"><rect height="16" width="9" y="13.5" x="55.5" class="commit-label-bkg"></rect><text class="commit-label" y="25" x="57.5">2</text></g><g transform="translate(-13.2, 11.7) rotate(-45, 100, 90)"><rect height="16" width="9" y="103.5" x="105.5" class="commit-label-bkg"></rect><text class="commit-label" y="115" x="107.5">3</text></g><g transform="translate(-13.58, 12.04) rotate(-45, 150, 0)"><rect height="16" width="10" y="13.5" x="155" class="commit-label-bkg"></rect><text class="commit-label" y="25" x="157">4</text></g><g transform="translate(-13.2059375, 11.7053125) rotate(-45, 200, 180)"><rect height="16" width="9.015625" y="193.5" x="205.4921875" class="commit-label-bkg"></rect><text class="commit-label" y="205" x="207.4921875">5</text></g><g transform="translate(-13.330625000000001, 11.816875) rotate(-45, 250, 0)"><rect height="16" width="9.34375" y="13.5" x="255.328125" class="commit-label-bkg"></rect><text class="commit-label" y="25" x="257.328125">6</text></g><g transform="translate(-13.2, 11.7) rotate(-45, 300, 90)"><rect height="16" width="9" y="103.5" x="305.5" class="commit-label-bkg"></rect><text class="commit-label" y="115" x="307.5">7</text></g><g transform="translate(-27.426250000000003, 24.42875) rotate(-45, 350, 0)"><rect height="16" width="46.4375" y="13.5" x="336.78125" class="commit-label-bkg"></rect><text class="commit-label" y="25" x="338.78125">customID</text></g><polygon points="323.47501373291016,-17.2
          323.47501373291016,-21.2
          331.47501373291016,-27.2
          388.52498626708984,-27.2
          388.52498626708984,-11.2
          331.47501373291016,-11.2" class="tag-label-bkg"></polygon><circle class="tag-hole" r="1.5" cy="-19.2" cx="327.47501373291016"></circle><text x="335.47501373291016" class="tag-label" y="-16">customTag</text><g transform="translate(-13.58, 12.04) rotate(-45, 400, 180)"><rect height="16" width="10" y="193.5" x="405" class="commit-label-bkg"></rect><text class="commit-label" y="205" x="407">8</text></g><g transform="translate(-13.295, 11.785) rotate(-45, 450, 0)"><rect height="16" width="9.25" y="13.5" x="455.375" class="commit-label-bkg"></rect><text class="commit-label" y="25" x="457.375">9</text></g></g></svg>